<?xml version="1.0" standalone="no"?>
<!DOCTYPE svg PUBLIC "-//W3C//DTD SVG 20010904//EN"
 "http://www.w3.org/TR/2001/REC-SVG-20010904/DTD/svg10.dtd">
<svg version="1.0" xmlns="http://www.w3.org/2000/svg"
 width="120.000000pt" height="120.000000pt" viewBox="0 0 120.000000 120.000000"
 preserveAspectRatio="xMidYMid meet">
<metadata>
Created by potrace 1.14, written by Peter Selinger 2001-2017
</metadata>
<g transform="translate(0.000000,120.000000) scale(0.100000,-0.100000)"
fill="#000000" stroke="none">
<path d="M254 1069 c-3 -5 -10 -7 -15 -4 -5 4 -15 3 -21 -2 -7 -4 -16 -8 -21
-8 -4 0 -16 -13 -27 -30 -22 -33 -26 -76 -9 -107 9 -16 7 -24 -10 -42 -23 -25
-70 -125 -99 -212 -19 -54 -19 -75 -7 -140 7 -32 50 -45 174 -55 70 -5 120
-14 128 -22 7 -7 31 -66 54 -132 40 -116 41 -123 36 -218 l-5 -97 272 0 271 0
82 75 c89 82 129 147 120 194 -8 41 -129 230 -174 272 -21 19 -57 43 -80 51
-36 14 -47 14 -80 2 -39 -13 -145 -19 -156 -8 -3 3 5 16 19 28 19 15 27 36 33
77 4 32 15 68 24 82 9 14 16 43 15 64 -1 21 5 53 13 70 13 32 13 34 -31 78
-51 52 -117 70 -149 41 -10 -9 -22 -16 -28 -16 -6 0 -26 -19 -45 -42 -30 -39
-33 -49 -32 -103 2 -59 10 -91 46 -171 10 -22 18 -44 18 -49 0 -5 10 -19 22
-32 l21 -23 -35 0 c-25 0 -53 12 -94 40 -70 48 -98 50 -213 17 -65 -19 -81
-21 -81 -10 0 8 12 59 26 114 14 55 23 107 20 114 -3 9 9 22 30 35 43 27 60
56 44 75 -8 10 -8 19 -1 34 6 11 11 24 11 30 0 14 -59 41 -66 30z m400 -98 c4
-5 -3 -7 -14 -4 -23 6 -26 13 -6 13 8 0 17 -4 20 -9z m-58 -46 c-11 -8 -27
-15 -35 -15 -9 1 -2 7 14 15 39 18 44 18 21 0z m139 -511 c-10 -56 -23 -84
-39 -84 -11 0 -13 6 -6 30 5 17 6 30 2 30 -4 0 -29 -16 -56 -35 -27 -19 -53
-32 -58 -29 -12 8 -3 19 47 55 53 38 56 49 15 49 -16 0 -30 5 -30 10 0 6 29
10 66 10 l66 0 -7 -36z m230 -111 l47 -66 -18 -46 c-9 -25 -26 -63 -36 -84
-16 -33 -23 -38 -41 -32 -12 4 -31 8 -42 9 -16 3 -20 10 -18 37 3 35 53 249
58 249 2 0 24 -30 50 -67z"/>
</g>
</svg>
